<mxfile host="app.diagrams.net" agent="Mozilla/5.0 (Windows NT 10.0; Win64; x64) AppleWebKit/537.36 (KHTML, like Gecko) Chrome/133.0.0.0 Safari/537.36" version="26.0.16">
  <diagram name="Page-1" id="Dv3Vgli3HsBg7TCRpH43">
    <mxGraphModel dx="667" dy="491" grid="1" gridSize="10" guides="1" tooltips="1" connect="1" arrows="1" fold="1" page="1" pageScale="1" pageWidth="850" pageHeight="1100" math="0" shadow="0">
      <root>
        <mxCell id="0" />
        <mxCell id="1" parent="0" />
        <mxCell id="4hHBt306RfiLPVUphg2p-3" value="" style="edgeStyle=orthogonalEdgeStyle;rounded=0;orthogonalLoop=1;jettySize=auto;html=1;" edge="1" parent="1" source="4hHBt306RfiLPVUphg2p-1" target="4hHBt306RfiLPVUphg2p-2">
          <mxGeometry relative="1" as="geometry" />
        </mxCell>
        <mxCell id="4hHBt306RfiLPVUphg2p-1" value="Create a variable called count to count the words with &#39;h&#39;" style="rounded=0;whiteSpace=wrap;html=1;" vertex="1" parent="1">
          <mxGeometry x="100" y="150" width="120" height="60" as="geometry" />
        </mxCell>
        <mxCell id="4hHBt306RfiLPVUphg2p-5" value="" style="edgeStyle=orthogonalEdgeStyle;rounded=0;orthogonalLoop=1;jettySize=auto;html=1;" edge="1" parent="1" source="4hHBt306RfiLPVUphg2p-2" target="4hHBt306RfiLPVUphg2p-4">
          <mxGeometry relative="1" as="geometry" />
        </mxCell>
        <mxCell id="4hHBt306RfiLPVUphg2p-2" value="Create variable called reps and set to zero" style="whiteSpace=wrap;html=1;rounded=0;" vertex="1" parent="1">
          <mxGeometry x="260" y="150" width="120" height="60" as="geometry" />
        </mxCell>
        <mxCell id="4hHBt306RfiLPVUphg2p-7" value="" style="edgeStyle=orthogonalEdgeStyle;rounded=0;orthogonalLoop=1;jettySize=auto;html=1;" edge="1" parent="1" source="4hHBt306RfiLPVUphg2p-4" target="4hHBt306RfiLPVUphg2p-6">
          <mxGeometry relative="1" as="geometry" />
        </mxCell>
        <mxCell id="4hHBt306RfiLPVUphg2p-8" value="Yes" style="edgeLabel;html=1;align=center;verticalAlign=middle;resizable=0;points=[];" vertex="1" connectable="0" parent="4hHBt306RfiLPVUphg2p-7">
          <mxGeometry x="-0.4873" y="-2" relative="1" as="geometry">
            <mxPoint as="offset" />
          </mxGeometry>
        </mxCell>
        <mxCell id="4hHBt306RfiLPVUphg2p-25" value="" style="edgeStyle=orthogonalEdgeStyle;rounded=0;orthogonalLoop=1;jettySize=auto;html=1;" edge="1" parent="1" source="4hHBt306RfiLPVUphg2p-4" target="4hHBt306RfiLPVUphg2p-24">
          <mxGeometry relative="1" as="geometry" />
        </mxCell>
        <mxCell id="4hHBt306RfiLPVUphg2p-26" value="No" style="edgeLabel;html=1;align=center;verticalAlign=middle;resizable=0;points=[];" vertex="1" connectable="0" parent="4hHBt306RfiLPVUphg2p-25">
          <mxGeometry x="-0.4615" y="2" relative="1" as="geometry">
            <mxPoint as="offset" />
          </mxGeometry>
        </mxCell>
        <mxCell id="4hHBt306RfiLPVUphg2p-4" value="Is reps&lt;br&gt;less than&lt;br&gt;5?" style="rhombus;whiteSpace=wrap;html=1;rounded=0;" vertex="1" parent="1">
          <mxGeometry x="280" y="240" width="80" height="80" as="geometry" />
        </mxCell>
        <mxCell id="4hHBt306RfiLPVUphg2p-10" value="" style="edgeStyle=orthogonalEdgeStyle;rounded=0;orthogonalLoop=1;jettySize=auto;html=1;" edge="1" parent="1" source="4hHBt306RfiLPVUphg2p-6" target="4hHBt306RfiLPVUphg2p-9">
          <mxGeometry relative="1" as="geometry" />
        </mxCell>
        <mxCell id="4hHBt306RfiLPVUphg2p-6" value="&lt;div&gt;Ask user to input word and store in variable word&lt;/div&gt;" style="whiteSpace=wrap;html=1;rounded=0;" vertex="1" parent="1">
          <mxGeometry x="260" y="360" width="120" height="60" as="geometry" />
        </mxCell>
        <mxCell id="4hHBt306RfiLPVUphg2p-14" style="edgeStyle=orthogonalEdgeStyle;rounded=0;orthogonalLoop=1;jettySize=auto;html=1;" edge="1" parent="1" source="4hHBt306RfiLPVUphg2p-9" target="4hHBt306RfiLPVUphg2p-11">
          <mxGeometry relative="1" as="geometry" />
        </mxCell>
        <mxCell id="4hHBt306RfiLPVUphg2p-15" value="" style="edgeStyle=orthogonalEdgeStyle;rounded=0;orthogonalLoop=1;jettySize=auto;html=1;" edge="1" parent="1" source="4hHBt306RfiLPVUphg2p-9" target="4hHBt306RfiLPVUphg2p-11">
          <mxGeometry relative="1" as="geometry" />
        </mxCell>
        <mxCell id="4hHBt306RfiLPVUphg2p-16" value="No" style="edgeLabel;html=1;align=center;verticalAlign=middle;resizable=0;points=[];" vertex="1" connectable="0" parent="4hHBt306RfiLPVUphg2p-15">
          <mxGeometry x="-0.4873" relative="1" as="geometry">
            <mxPoint as="offset" />
          </mxGeometry>
        </mxCell>
        <mxCell id="4hHBt306RfiLPVUphg2p-18" value="" style="edgeStyle=orthogonalEdgeStyle;rounded=0;orthogonalLoop=1;jettySize=auto;html=1;" edge="1" parent="1" source="4hHBt306RfiLPVUphg2p-9" target="4hHBt306RfiLPVUphg2p-17">
          <mxGeometry relative="1" as="geometry" />
        </mxCell>
        <mxCell id="4hHBt306RfiLPVUphg2p-19" value="" style="edgeStyle=orthogonalEdgeStyle;rounded=0;orthogonalLoop=1;jettySize=auto;html=1;" edge="1" parent="1" source="4hHBt306RfiLPVUphg2p-9" target="4hHBt306RfiLPVUphg2p-17">
          <mxGeometry relative="1" as="geometry" />
        </mxCell>
        <mxCell id="4hHBt306RfiLPVUphg2p-20" value="Yes" style="edgeLabel;html=1;align=center;verticalAlign=middle;resizable=0;points=[];" vertex="1" connectable="0" parent="4hHBt306RfiLPVUphg2p-19">
          <mxGeometry x="-0.221" y="3" relative="1" as="geometry">
            <mxPoint as="offset" />
          </mxGeometry>
        </mxCell>
        <mxCell id="4hHBt306RfiLPVUphg2p-9" value="Does&lt;br&gt;word contain&lt;br&gt;&#39;h&#39;?" style="rhombus;whiteSpace=wrap;html=1;rounded=0;" vertex="1" parent="1">
          <mxGeometry x="440" y="350" width="80" height="80" as="geometry" />
        </mxCell>
        <mxCell id="4hHBt306RfiLPVUphg2p-23" style="edgeStyle=orthogonalEdgeStyle;rounded=0;orthogonalLoop=1;jettySize=auto;html=1;" edge="1" parent="1" target="4hHBt306RfiLPVUphg2p-4">
          <mxGeometry relative="1" as="geometry">
            <mxPoint x="650" y="360" as="sourcePoint" />
            <mxPoint x="320" y="280" as="targetPoint" />
            <Array as="points">
              <mxPoint x="650" y="280" />
            </Array>
          </mxGeometry>
        </mxCell>
        <mxCell id="4hHBt306RfiLPVUphg2p-11" value="Increment reps" style="whiteSpace=wrap;html=1;rounded=0;" vertex="1" parent="1">
          <mxGeometry x="590" y="360" width="120" height="60" as="geometry" />
        </mxCell>
        <mxCell id="4hHBt306RfiLPVUphg2p-22" style="edgeStyle=orthogonalEdgeStyle;rounded=0;orthogonalLoop=1;jettySize=auto;html=1;" edge="1" parent="1" source="4hHBt306RfiLPVUphg2p-17" target="4hHBt306RfiLPVUphg2p-11">
          <mxGeometry relative="1" as="geometry" />
        </mxCell>
        <mxCell id="4hHBt306RfiLPVUphg2p-17" value="Increment count" style="whiteSpace=wrap;html=1;rounded=0;" vertex="1" parent="1">
          <mxGeometry x="420" y="480" width="120" height="60" as="geometry" />
        </mxCell>
        <mxCell id="4hHBt306RfiLPVUphg2p-24" value="Print count" style="whiteSpace=wrap;html=1;rounded=0;" vertex="1" parent="1">
          <mxGeometry x="100" y="250" width="120" height="60" as="geometry" />
        </mxCell>
      </root>
    </mxGraphModel>
  </diagram>
</mxfile>
